<svg xmlns="http://www.w3.org/2000/svg" width="736" height="558" viewBox="0 0 736 558">
<g>
<path d="M 0.00 0.00 L 736.00 0.00 L 736.00 558.00 L 0.00 558.00 ZM 350.00 444.82 C357.48,446.38 380.65,446.17 388.84,444.47 C408.26,440.41 424.50,433.31 438.00,422.95 C460.75,405.48 475.00,382.91 482.14,353.00 C482.94,349.65 483.47,341.14 483.48,331.25 C483.50,316.28 483.64,315.00 485.30,315.00 C491.87,315.00 501.64,303.73 499.63,298.48 C498.44,295.37 495.92,295.67 492.14,299.37 C489.12,302.31 487.66,303.00 484.45,303.00 C480.62,303.00 479.76,302.28 460.60,283.10 C443.56,266.05 440.80,262.87 441.32,260.88 C441.83,258.92 439.86,256.49 428.47,245.04 L 415.02 231.50 L 411.76 233.39 C398.43,241.10 393.70,243.13 384.41,245.10 C367.97,248.59 353.90,246.67 338.00,238.78 C331.31,235.46 327.66,232.73 320.88,225.99 C313.46,218.62 311.54,215.95 307.13,206.97 C304.31,201.22 302.00,195.74 302.00,194.80 C302.00,192.39 299.87,188.00 298.70,188.00 C297.17,188.00 298.69,200.72 301.09,208.03 C303.30,214.77 306.51,221.46 309.94,226.50 C311.07,228.15 311.99,230.21 311.99,231.07 C312.00,231.93 308.29,235.18 303.75,238.29 C278.74,255.42 262.91,279.58 256.47,310.44 C254.80,318.46 254.45,345.13 255.94,350.88 C260.23,367.47 261.80,372.46 264.79,379.00 C275.20,401.78 295.42,422.90 317.08,433.61 C326.84,438.43 338.55,442.42 350.00,444.82 ZM 358.65 431.75 C360.04,433.99 360.01,434.00 354.08,434.00 C350.80,434.00 347.84,433.55 347.50,433.00 C347.16,432.45 345.90,431.95 344.69,431.88 C342.66,431.78 342.65,431.73 344.50,431.29 C345.60,431.02 346.86,430.47 347.30,430.05 C347.75,429.63 345.90,425.06 343.21,419.90 C340.52,414.73 331.45,397.33 323.07,381.23 L 307.82 351.96 L 312.34 343.23 C314.83,338.43 317.91,332.61 319.18,330.30 C322.45,324.37 321.09,323.42 313.05,325.98 L 312.78 326.07 C307.77,327.67 305.26,328.47 303.86,327.57 C302.44,326.64 302.18,323.94 301.59,318.50 C300.53,308.51 297.84,292.25 295.39,281.00 C291.09,261.24 290.67,260.60 285.55,265.95 L 282.72 268.90 L 285.84 280.70 C290.11,296.86 292.73,311.74 294.57,330.33 C295.33,337.92 296.04,338.64 301.40,337.15 C306.52,335.74 306.80,337.22 302.60,343.55 C300.62,346.53 299.00,349.71 299.00,350.61 C299.00,352.22 305.67,365.37 334.90,421.40 C337.17,425.75 338.82,429.52 338.56,429.77 C336.39,431.94 317.00,422.88 305.50,414.33 C289.33,402.29 274.42,382.11 268.92,364.79 C267.82,361.33 266.54,357.60 266.08,356.50 C262.89,348.85 261.88,320.80 264.38,309.00 C267.25,295.43 276.39,273.41 280.61,269.91 C281.44,269.22 283.70,266.28 285.63,263.37 C291.52,254.50 312.40,237.00 317.09,237.00 C319.24,237.00 319.25,237.04 322.46,254.50 C323.88,262.20 325.49,270.75 326.05,273.50 C326.61,276.25 327.50,280.75 328.03,283.50 C328.57,286.25 329.74,292.10 330.63,296.50 C331.52,300.90 332.46,305.62 332.72,307.00 C334.12,314.39 337.30,330.38 338.58,336.50 C340.49,345.68 341.32,349.78 345.94,373.00 C352.11,403.95 352.98,408.26 353.95,412.50 C354.45,414.70 355.40,419.42 356.06,423.00 C356.72,426.58 357.89,430.51 358.65,431.75 ZM 361.00 230.30 C383.50,234.16 408.36,222.01 418.37,202.25 C423.41,192.31 424.37,188.18 424.34,176.50 C424.30,159.85 419.99,149.61 408.03,137.83 C390.92,120.97 365.79,117.23 344.51,128.36 C335.66,132.99 326.15,142.88 321.78,152.00 C316.64,162.72 316.00,165.44 316.00,176.66 C316.00,187.61 317.74,194.67 322.65,203.55 C326.08,209.75 337.20,221.05 342.50,223.72 C347.08,226.03 357.31,229.67 361.00,230.30 ZM 390.48 432.83 C387.40,434.23 378.63,434.41 379.46,433.06 C379.96,432.26 386.57,401.43 389.02,388.50 C389.44,386.30 391.81,374.60 394.29,362.50 C396.77,350.40 401.57,326.55 404.95,309.50 C408.33,292.45 411.51,276.92 412.02,275.00 C412.53,273.08 413.93,266.20 415.14,259.72 C416.35,253.25 417.70,248.07 418.13,248.22 C418.56,248.38 423.43,252.93 428.95,258.35 C437.39,266.61 439.00,268.69 439.00,271.28 C439.00,273.09 439.91,275.34 441.20,276.71 L 443.40 279.06 L 441.20 290.10 C439.99,296.17 438.23,307.18 437.29,314.57 C436.22,322.95 435.96,326.53 434.21,327.53 C432.94,328.26 430.88,327.61 427.15,326.44 C426.63,326.28 426.07,326.10 425.48,325.92 C420.96,324.53 418.43,324.17 417.75,324.85 C417.07,325.53 418.91,329.84 423.37,337.99 C427.02,344.65 430.00,350.82 430.00,351.68 C430.00,353.14 417.42,378.05 400.54,410.00 C391.45,427.22 390.31,429.96 391.87,430.92 C392.66,431.41 392.19,432.05 390.48,432.83 ZM 414.56 425.13 C405.83,429.30 400.00,430.92 400.00,429.19 C400.00,428.60 401.29,425.73 402.87,422.81 C404.45,419.89 412.62,404.23 421.02,388.00 C429.43,371.77 437.14,356.93 438.15,355.01 C439.17,353.10 440.00,351.07 440.00,350.51 C440.00,349.96 438.21,346.81 436.02,343.53 C433.84,340.24 432.38,337.23 432.77,336.84 C433.17,336.45 435.40,336.64 437.72,337.26 C440.04,337.89 442.13,338.19 442.37,337.95 C442.60,337.70 443.75,330.30 444.92,321.50 C448.20,296.75 449.78,288.91 451.60,288.30 C452.14,288.12 457.57,293.04 463.67,299.24 L 474.75 310.50 L 475.47 320.30 C476.91,339.88 473.90,355.94 465.22,375.00 C461.56,383.03 452.08,396.05 444.07,404.05 C434.35,413.75 426.23,419.55 414.56,425.13 ZM 531.01 547.39 C537.84,549.23 538.30,549.24 545.57,547.91 C553.04,546.54 560.24,542.69 563.65,538.22 C572.45,526.68 572.05,507.44 562.81,497.40 C556.36,490.42 551.32,488.50 539.50,488.52 C530.61,488.55 528.93,488.85 524.35,491.24 C518.10,494.51 513.56,499.79 511.39,506.32 C509.11,513.21 509.83,527.97 512.72,533.50 C516.39,540.51 522.41,545.08 531.01,547.39 ZM 578.73 546.84 C580.10,547.88 584.27,548.09 597.10,547.78 C612.63,547.40 614.06,547.21 619.16,544.71 C625.42,541.65 629.00,536.50 629.00,530.55 C629.00,526.16 627.80,523.60 623.69,519.26 L 620.63 516.02 L 622.69 513.76 C629.63,506.14 628.09,495.75 619.37,491.42 C615.96,489.73 613.23,489.50 596.50,489.50 L 577.50 489.50 L 577.23 517.50 C576.99,543.28 577.11,545.61 578.73,546.84 ZM 153.11 546.63 C153.83,547.50 156.35,548.00 160.05,548.00 C168.73,548.00 169.00,547.50 169.00,531.43 C169.00,524.04 169.41,518.00 169.91,518.00 C170.41,518.00 174.74,524.09 179.54,531.54 C184.35,538.99 189.21,545.74 190.36,546.54 C192.62,548.12 204.55,548.57 206.77,547.17 C207.75,546.54 207.97,540.01 207.77,517.93 L 207.50 489.50 L 192.50 489.50 L 192.00 503.00 C191.61,513.40 191.19,516.50 190.15,516.50 C189.41,516.50 184.84,510.42 180.00,503.00 L 171.19 489.50 L 152.50 489.50 L 152.23 517.38 C152.05,537.11 152.30,545.66 153.11,546.63 ZM 276.57 546.43 C277.90,547.75 281.29,548.00 298.14,548.00 C310.01,548.00 318.92,547.58 320.07,546.96 C321.61,546.14 322.00,544.85 322.00,540.55 C322.00,540.27 322.00,540.00 322.00,539.73 C322.01,536.45 322.01,534.56 321.08,533.47 C319.81,531.99 316.82,531.99 309.76,532.00 C309.35,532.00 308.92,532.00 308.47,532.00 C294.90,532.00 293.00,531.63 293.00,529.00 C293.00,526.42 294.92,526.00 306.61,526.00 C316.90,526.00 317.06,525.96 318.02,523.43 C319.30,520.08 319.27,514.37 317.96,511.93 C317.03,510.19 315.77,510.00 304.96,510.00 L 293.00 510.00 L 293.00 505.00 L 305.88 505.00 C315.75,505.00 319.03,504.67 319.93,503.59 C320.63,502.74 320.98,499.65 320.80,495.84 L 320.50 489.50 L 298.57 489.23 C281.70,489.02 276.46,489.25 275.84,490.23 C275.39,490.93 275.02,503.51 275.02,518.18 C275.00,541.11 275.22,545.08 276.57,546.43 ZM 234.14 546.67 C235.43,548.22 246.68,548.49 249.00,547.02 C250.24,546.24 250.55,542.47 250.81,525.54 L 251.11 505.00 L 258.43 505.00 C267.48,505.00 268.20,504.30 267.80,495.84 L 267.50 489.50 L 242.29 489.23 C218.63,488.98 217.03,489.08 216.10,490.82 C215.05,492.77 215.59,502.99 216.80,504.20 C217.18,504.58 220.88,505.04 225.00,505.20 L 232.50 505.50 L 232.77 525.42 C232.94,538.06 233.45,545.83 234.14,546.67 ZM 471.72 547.91 C477.16,549.19 479.78,549.14 486.23,547.62 C493.48,545.92 498.69,541.96 501.22,536.24 C502.88,532.48 503.28,528.74 503.74,512.59 C503.75,512.08 503.77,511.58 503.78,511.09 C504.18,496.97 504.33,491.80 501.94,490.00 C500.56,488.96 498.34,489.05 494.83,489.18 C494.62,489.19 494.41,489.20 494.19,489.21 L 486.50 489.50 L 486.00 509.33 C485.54,527.49 485.34,529.29 483.56,530.58 C479.43,533.60 472.00,531.27 472.00,526.97 C472.00,523.82 469.50,522.90 461.84,523.20 C454.57,523.50 454.50,523.53 454.17,526.40 C453.75,530.06 456.44,537.18 459.72,541.08 C462.62,544.53 466.33,546.64 471.72,547.91 ZM 329.57 546.43 C330.88,547.74 334.09,548.00 348.95,548.00 C358.74,548.00 368.11,547.73 369.78,547.39 C373.30,546.69 373.92,544.84 373.07,537.47 L 372.50 532.50 L 361.50 532.25 C359.84,532.22 358.36,532.21 357.03,532.20 C352.09,532.17 349.35,532.15 347.81,530.77 C345.88,529.05 345.86,525.19 345.82,516.50 C345.81,514.64 345.80,512.56 345.77,510.24 L 345.50 489.50 L 338.16 489.20 C333.61,489.02 330.28,489.35 329.41,490.08 C328.26,491.03 328.00,496.23 328.00,518.05 C328.00,541.09 328.22,545.08 329.57,546.43 ZM 380.73 547.31 C381.71,547.56 391.13,547.82 401.68,547.88 C423.82,548.02 424.00,547.95 424.00,540.01 C424.00,539.80 424.00,539.60 424.00,539.40 C424.00,536.34 424.01,534.54 423.12,533.49 C421.87,532.00 418.84,532.00 411.53,532.00 C411.20,532.00 410.86,532.00 410.52,532.00 C401.54,532.00 397.95,531.64 397.14,530.67 C396.45,529.83 395.94,522.06 395.77,509.42 L 395.50 489.50 L 379.50 489.50 L 379.23 518.17 C378.99,544.86 379.09,546.88 380.73,547.31 ZM 367.00 361.51 C367.00,368.31 366.66,374.09 366.25,374.35 C365.84,374.60 364.24,371.74 362.71,368.00 C361.17,364.25 358.22,358.55 356.15,355.34 C354.08,352.13 351.35,347.64 350.08,345.37 L 347.77 341.24 L 351.77 334.37 C353.97,330.59 356.58,325.31 357.57,322.62 C359.68,316.90 363.62,314.01 369.30,314.00 C375.77,314.00 378.44,316.14 381.46,323.71 C382.94,327.45 385.47,332.56 387.08,335.09 C388.69,337.61 390.00,340.39 390.00,341.26 C390.00,342.13 387.70,346.54 384.90,351.07 C382.09,355.59 378.23,362.68 376.32,366.82 C373.74,372.41 372.60,373.99 371.93,372.93 C370.73,371.04 370.94,352.66 372.23,347.25 C372.98,344.07 372.92,342.61 372.00,341.50 C368.81,337.66 364.12,341.57 366.00,346.50 C366.55,347.95 367.00,354.70 367.00,361.51 ZM 383.21 294.43 C381.29,300.82 380.54,301.54 377.60,299.83 C375.31,298.50 364.74,298.23 360.36,299.38 C357.42,300.15 357.16,300.00 356.12,296.85 C351.88,283.98 350.24,271.79 352.23,268.00 C352.95,266.62 355.72,264.04 358.38,262.25 C362.49,259.50 364.13,259.00 369.13,259.00 C377.16,259.00 384.33,263.47 386.82,270.03 C387.90,272.87 386.17,284.56 383.21,294.43 ZM 430.75 546.98 C433.28,548.53 444.91,547.75 446.05,545.95 C447.06,544.36 447.37,493.13 446.39,490.58 C445.92,489.34 444.23,489.00 438.59,489.00 C434.33,489.00 430.91,489.49 430.20,490.20 C429.33,491.07 429.00,498.79 429.00,518.65 C429.00,543.53 429.15,545.99 430.75,546.98 ZM 128.67 546.75 C130.56,548.13 140.77,548.43 142.77,547.17 C143.75,546.54 143.97,540.01 143.77,517.93 L 143.50 489.50 L 127.50 489.50 L 127.23 517.50 C126.99,542.94 127.12,545.61 128.67,546.75 ZM 376.93 190.54 C370.39,193.92 361.67,191.48 357.44,185.09 C355.15,181.62 354.82,180.24 355.19,175.69 C355.85,167.81 359.98,163.20 367.90,161.50 L 371.29 160.78 L 370.51 164.14 C369.33,169.21 369.61,171.91 371.55,174.06 C373.58,176.30 379.90,176.70 382.97,174.79 C385.66,173.11 386.31,174.18 385.51,178.97 C384.73,183.56 381.19,188.33 376.93,190.54 ZM 546.59 530.35 C545.16,531.28 542.06,532.00 539.44,532.00 C535.53,532.00 534.28,531.48 531.53,528.73 C525.88,523.08 525.89,512.27 531.53,506.97 C534.92,503.79 543.73,503.54 547.04,506.53 C553.95,512.79 553.70,525.69 546.59,530.35 ZM 427.43 222.92 C429.88,225.63 430.49,225.55 432.72,222.25 C437.65,214.97 442.00,201.11 442.00,192.71 C442.00,185.72 439.92,187.09 437.71,195.55 C436.09,201.73 433.00,208.40 427.45,217.67 C425.59,220.78 425.59,220.89 427.43,222.92 ZM 609.44 532.07 C607.11,534.64 595.56,534.91 594.61,532.42 C593.63,529.87 593.91,526.49 595.20,525.20 C596.63,523.77 603.86,523.62 607.35,524.94 C610.68,526.21 611.67,529.60 609.44,532.07 ZM 607.43 509.43 C605.54,511.31 596.97,511.57 595.20,509.80 C593.54,508.14 593.70,504.49 595.51,503.00 C597.45,501.38 606.89,502.22 608.09,504.11 C609.38,506.15 609.19,507.66 607.43,509.43 ZM 369.71 308.00 C367.63,308.00 364.16,308.90 362.01,309.99 C358.29,311.89 356.03,311.39 357.51,308.99 C358.73,307.01 365.97,304.00 369.50,304.00 C372.86,304.00 380.25,306.98 381.37,308.78 C381.64,309.23 381.51,310.17 381.08,310.87 C380.47,311.86 379.53,311.69 376.90,310.08 C375.03,308.94 371.79,308.01 369.71,308.00 Z" fill="rgb(9,8,10)"/>
<path d="M 350.00 444.82 C338.55,442.42 326.84,438.43 317.08,433.61 C295.42,422.90 275.20,401.78 264.79,379.00 C261.80,372.46 260.23,367.47 255.94,350.88 C254.45,345.13 254.80,318.46 256.47,310.44 C262.91,279.58 278.74,255.42 303.75,238.29 C308.29,235.18 312.00,231.93 311.99,231.07 C311.99,230.21 311.07,228.15 309.94,226.50 C306.51,221.46 303.30,214.77 301.09,208.03 C298.69,200.72 297.17,188.00 298.70,188.00 C299.87,188.00 302.00,192.39 302.00,194.80 C302.00,195.74 304.31,201.22 307.13,206.97 C311.54,215.95 313.46,218.62 320.88,225.99 C327.66,232.73 331.31,235.46 338.00,238.78 C353.90,246.67 367.97,248.59 384.41,245.10 C393.70,243.13 398.43,241.10 411.76,233.39 L 415.02 231.50 L 428.47 245.04 C439.86,256.49 441.83,258.92 441.32,260.88 C440.80,262.87 443.56,266.05 460.60,283.10 C479.76,302.28 480.62,303.00 484.45,303.00 C487.66,303.00 489.12,302.31 492.14,299.37 C495.92,295.67 498.44,295.37 499.63,298.48 C501.64,303.73 491.87,315.00 485.30,315.00 C483.64,315.00 483.50,316.28 483.48,331.25 C483.47,341.14 482.94,349.65 482.14,353.00 C475.00,382.91 460.75,405.48 438.00,422.95 C424.50,433.31 408.26,440.41 388.84,444.47 C380.65,446.17 357.48,446.38 350.00,444.82 ZM 359.00 443.87 C377.24,445.08 390.37,443.45 406.63,437.95 C433.56,428.85 456.98,408.22 470.00,382.12 C479.14,363.80 481.27,354.75 481.65,332.58 L 481.97 314.65 L 485.73 313.37 C490.14,311.86 498.00,304.01 498.00,301.12 C498.00,297.74 496.37,297.85 492.00,301.50 C486.69,305.94 482.78,306.10 477.40,302.10 C475.26,300.51 466.53,292.19 458.01,283.60 C449.49,275.02 442.21,268.00 441.83,268.00 C440.07,268.00 440.64,272.76 442.72,275.33 C445.25,278.46 445.44,279.86 444.03,285.00 C442.61,290.18 440.10,305.02 438.56,317.35 C437.82,323.31 436.76,328.64 436.22,329.18 C435.56,329.84 433.13,329.64 429.03,328.59 C425.63,327.71 422.42,327.00 421.92,327.00 C419.97,327.00 421.21,330.61 426.70,340.94 L 432.39 351.66 L 423.57 369.08 C418.72,378.66 414.42,386.95 414.02,387.50 C412.44,389.65 394.00,426.00 394.00,426.97 C394.00,427.54 394.84,428.00 395.88,428.00 C396.10,428.00 396.30,428.02 396.47,428.04 C396.65,428.07 396.82,428.09 396.98,428.08 C398.62,427.98 400.09,424.84 418.25,390.00 C421.83,383.12 427.74,371.80 431.38,364.84 C435.02,357.88 438.00,351.47 438.00,350.60 C438.00,349.73 435.95,346.03 433.44,342.37 C428.02,334.44 428.51,332.91 435.71,335.23 C438.34,336.08 440.84,336.57 441.25,336.33 C441.66,336.08 442.00,334.45 442.00,332.69 C442.01,324.74 447.99,289.62 449.93,286.15 C450.69,284.80 453.02,286.66 463.42,297.01 L 476.00 309.50 L 476.96 318.93 C478.96,338.58 474.60,360.62 465.29,378.00 C458.85,390.01 455.72,394.30 446.14,404.26 C431.94,419.00 415.74,428.39 395.49,433.61 C385.73,436.13 382.77,436.44 369.00,436.44 C355.31,436.44 352.24,436.12 342.77,433.67 C321.75,428.25 305.51,418.65 290.60,402.85 C276.01,387.38 265.28,366.01 262.06,346.00 C260.38,335.56 260.79,318.64 262.97,308.32 C267.64,286.20 276.28,269.89 291.50,254.46 C301.11,244.72 314.03,235.00 317.36,235.00 C319.82,235.00 321.60,238.80 322.98,247.00 C324.75,257.55 327.47,272.01 332.49,297.50 C334.87,309.60 337.03,320.62 337.29,322.00 C340.90,341.58 359.36,430.71 359.92,431.29 C360.34,431.73 364.67,431.95 369.55,431.79 L 378.41 431.50 L 380.15 423.00 C381.11,418.33 385.10,398.98 389.02,380.00 C397.87,337.13 402.04,316.67 402.98,311.50 C403.38,309.30 406.00,296.02 408.79,282.00 C411.59,267.98 414.16,254.40 414.49,251.83 C415.60,243.33 416.84,243.58 428.00,254.55 C433.49,259.94 438.15,264.16 438.37,263.93 C438.58,263.69 439.07,262.46 439.46,261.19 C440.08,259.20 438.59,257.26 428.84,247.35 C422.60,241.02 416.68,235.39 415.67,234.84 C414.27,234.08 412.96,234.42 410.12,236.30 C397.77,244.47 385.72,248.01 370.27,247.98 C357.08,247.97 346.59,245.54 336.79,240.25 C322.90,232.74 314.18,223.86 306.10,209.00 C302.73,202.79 302.03,201.98 302.01,204.32 C302.00,207.68 307.55,220.03 311.95,226.43 C313.69,228.95 314.85,231.43 314.54,231.93 C314.23,232.44 310.30,235.43 305.81,238.57 C288.35,250.81 274.99,266.35 266.78,284.00 C246.76,327.02 255.55,377.22 289.00,411.00 C301.75,423.87 316.51,433.14 332.50,438.31 C345.26,442.43 348.92,443.20 359.00,443.87 ZM 358.65 431.75 C357.89,430.51 356.72,426.58 356.06,423.00 C355.40,419.42 354.45,414.70 353.95,412.50 C352.98,408.26 352.11,403.95 345.94,373.00 C341.32,349.78 340.49,345.68 338.58,336.50 C337.30,330.38 334.12,314.39 332.72,307.00 C332.46,305.62 331.52,300.90 330.63,296.50 C329.74,292.10 328.57,286.25 328.03,283.50 C327.50,280.75 326.61,276.25 326.05,273.50 C325.49,270.75 323.88,262.20 322.46,254.50 C319.25,237.04 319.24,237.00 317.09,237.00 C312.40,237.00 291.52,254.50 285.63,263.37 C283.70,266.28 281.44,269.22 280.61,269.91 C276.39,273.41 267.25,295.43 264.38,309.00 C261.88,320.80 262.89,348.85 266.08,356.50 C266.54,357.60 267.82,361.33 268.92,364.79 C274.42,382.11 289.33,402.29 305.50,414.33 C317.00,422.88 336.39,431.94 338.56,429.77 C338.82,429.52 337.17,425.75 334.90,421.40 C305.67,365.37 299.00,352.22 299.00,350.61 C299.00,349.71 300.62,346.53 302.60,343.55 C306.80,337.22 306.52,335.74 301.40,337.15 C296.04,338.64 295.33,337.92 294.57,330.33 C292.73,311.74 290.11,296.86 285.84,280.70 L 282.72 268.90 L 285.55 265.95 C290.67,260.60 291.09,261.24 295.39,281.00 C297.84,292.25 300.53,308.51 301.59,318.50 C302.18,323.94 302.44,326.64 303.86,327.57 C305.26,328.47 307.77,327.67 312.78,326.07 L 313.05 325.98 C321.09,323.42 322.45,324.37 319.18,330.30 C317.91,332.61 314.83,338.43 312.34,343.23 L 307.82 351.96 L 323.07 381.23 C331.45,397.33 340.52,414.73 343.21,419.90 C345.90,425.06 347.75,429.63 347.30,430.05 C346.86,430.47 345.60,431.02 344.50,431.29 C342.65,431.73 342.66,431.78 344.69,431.88 C345.90,431.95 347.16,432.45 347.50,433.00 C347.84,433.55 350.80,434.00 354.08,434.00 C360.01,434.00 360.04,433.99 358.65,431.75 ZM 361.00 230.30 C357.31,229.67 347.08,226.03 342.50,223.72 C337.20,221.05 326.08,209.75 322.65,203.55 C317.74,194.67 316.00,187.61 316.00,176.66 C316.00,165.44 316.64,162.72 321.78,152.00 C326.15,142.88 335.66,132.99 344.51,128.36 C365.79,117.23 390.92,120.97 408.03,137.83 C419.99,149.61 424.30,159.85 424.34,176.50 C424.37,188.18 423.41,192.31 418.37,202.25 C408.36,222.01 383.50,234.16 361.00,230.30 ZM 353.11 226.42 C361.13,229.42 375.21,229.86 383.85,227.37 C423.38,215.98 436.39,167.74 407.54,139.44 C396.81,128.90 384.90,124.00 370.05,124.00 C347.04,124.00 327.57,138.02 319.89,160.11 C318.13,165.20 317.69,168.64 317.73,177.00 C317.81,192.66 321.97,202.93 332.52,213.48 C338.71,219.66 344.06,223.03 353.11,226.42 ZM 390.48 432.83 C392.19,432.05 392.66,431.41 391.87,430.92 C390.31,429.96 391.45,427.22 400.54,410.00 C417.42,378.05 430.00,353.14 430.00,351.68 C430.00,350.82 427.02,344.65 423.37,337.99 C418.91,329.84 417.07,325.53 417.75,324.85 C418.43,324.17 420.96,324.53 425.48,325.92 C426.07,326.10 426.63,326.28 427.15,326.44 C430.88,327.61 432.94,328.26 434.21,327.53 C435.96,326.53 436.22,322.95 437.29,314.57 C438.23,307.18 439.99,296.17 441.20,290.10 L 443.40 279.06 L 441.20 276.71 C439.91,275.34 439.00,273.09 439.00,271.28 C439.00,268.69 437.39,266.61 428.95,258.35 C423.43,252.93 418.56,248.38 418.13,248.22 C417.70,248.07 416.35,253.25 415.14,259.72 C413.93,266.20 412.53,273.08 412.02,275.00 C411.51,276.92 408.33,292.45 404.95,309.50 C401.57,326.55 396.77,350.40 394.29,362.50 C391.81,374.60 389.44,386.30 389.02,388.50 C386.57,401.43 379.96,432.26 379.46,433.06 C378.63,434.41 387.40,434.23 390.48,432.83 ZM 414.56 425.13 C426.23,419.55 434.35,413.75 444.07,404.05 C452.08,396.05 461.56,383.03 465.22,375.00 C473.90,355.94 476.91,339.88 475.47,320.30 L 474.75 310.50 L 463.67 299.24 C457.57,293.04 452.14,288.12 451.60,288.30 C449.78,288.91 448.20,296.75 444.92,321.50 C443.75,330.30 442.60,337.70 442.37,337.95 C442.13,338.19 440.04,337.89 437.72,337.26 C435.40,336.64 433.17,336.45 432.77,336.84 C432.38,337.23 433.84,340.24 436.02,343.53 C438.21,346.81 440.00,349.96 440.00,350.51 C440.00,351.07 439.17,353.10 438.15,355.01 C437.14,356.93 429.43,371.77 421.02,388.00 C412.62,404.23 404.45,419.89 402.87,422.81 C401.29,425.73 400.00,428.60 400.00,429.19 C400.00,430.92 405.83,429.30 414.56,425.13 ZM 531.01 547.39 C522.41,545.08 516.39,540.51 512.72,533.50 C509.83,527.97 509.11,513.21 511.39,506.32 C513.56,499.79 518.10,494.51 524.35,491.24 C528.93,488.85 530.61,488.55 539.50,488.52 C551.32,488.50 556.36,490.42 562.81,497.40 C572.05,507.44 572.45,526.68 563.65,538.22 C560.24,542.69 553.04,546.54 545.57,547.91 C538.30,549.24 537.84,549.23 531.01,547.39 ZM 578.73 546.84 C577.11,545.61 576.99,543.28 577.23,517.50 L 577.50 489.50 L 596.50 489.50 C613.23,489.50 615.96,489.73 619.37,491.42 C628.09,495.75 629.63,506.14 622.69,513.76 L 620.63 516.02 L 623.69 519.26 C627.80,523.60 629.00,526.16 629.00,530.55 C629.00,536.50 625.42,541.65 619.16,544.71 C614.06,547.21 612.63,547.40 597.10,547.78 C584.27,548.09 580.10,547.88 578.73,546.84 ZM 530.67 545.57 C536.81,547.22 540.58,547.28 547.19,545.87 C555.38,544.11 561.52,539.59 565.34,532.50 C567.16,529.13 567.50,526.85 567.50,518.00 C567.50,508.35 567.28,507.12 564.75,502.82 C561.41,497.13 556.18,492.67 551.08,491.14 C544.57,489.19 531.64,489.69 526.53,492.09 C512.32,498.77 506.90,517.30 514.64,532.77 C517.93,539.35 523.20,543.56 530.67,545.57 ZM 153.11 546.63 C152.30,545.66 152.05,537.11 152.23,517.38 L 152.50 489.50 L 171.19 489.50 L 180.00 503.00 C184.84,510.42 189.41,516.50 190.15,516.50 C191.19,516.50 191.61,513.40 192.00,503.00 L 192.50 489.50 L 207.50 489.50 L 207.77 517.93 C207.97,540.01 207.75,546.54 206.77,547.17 C204.55,548.57 192.62,548.12 190.36,546.54 C189.21,545.74 184.35,538.99 179.54,531.54 C174.74,524.09 170.41,518.00 169.91,518.00 C169.41,518.00 169.00,524.04 169.00,531.43 C169.00,547.50 168.73,548.00 160.05,548.00 C156.35,548.00 153.83,547.50 153.11,546.63 ZM 579.49 544.83 C579.91,545.93 583.37,546.13 597.26,545.84 C616.78,545.44 620.55,544.37 624.83,538.00 C626.76,535.13 627.10,533.55 626.75,529.21 C626.40,524.76 625.75,523.33 622.66,520.17 C620.65,518.10 619.00,516.14 619.00,515.81 C619.00,515.48 620.32,513.80 621.94,512.07 C625.11,508.67 625.98,505.17 624.80,500.59 C622.68,492.37 615.18,489.83 594.25,490.22 L 579.50 490.50 L 579.23 516.98 C579.09,531.55 579.20,544.08 579.49,544.83 ZM 276.57 546.43 C275.22,545.08 275.00,541.11 275.02,518.18 C275.02,503.51 275.39,490.93 275.84,490.23 C276.46,489.25 281.70,489.02 298.57,489.23 L 320.50 489.50 L 320.80 495.84 C320.98,499.65 320.63,502.74 319.93,503.59 C319.03,504.67 315.75,505.00 305.88,505.00 L 293.00 505.00 L 293.00 510.00 L 304.96 510.00 C315.77,510.00 317.03,510.19 317.96,511.93 C319.27,514.37 319.30,520.08 318.02,523.43 C317.06,525.96 316.90,526.00 306.61,526.00 C294.92,526.00 293.00,526.42 293.00,529.00 C293.00,531.63 294.90,532.00 308.47,532.00 C308.92,532.00 309.35,532.00 309.76,532.00 C316.82,531.99 319.81,531.99 321.08,533.47 C322.01,534.56 322.01,536.45 322.00,539.73 C322.00,540.00 322.00,540.27 322.00,540.55 C322.00,544.85 321.61,546.14 320.07,546.96 C318.92,547.58 310.01,548.00 298.14,548.00 C281.29,548.00 277.90,547.75 276.57,546.43 ZM 154.23 518.30 L 153.97 546.10 L 160.23 545.80 L 166.50 545.50 L 166.78 530.85 C167.17,509.96 167.34,509.94 180.48,529.92 L 191.06 546.00 L 197.45 546.00 C198.23,546.00 198.95,546.01 199.62,546.03 C202.09,546.07 203.74,546.11 204.84,545.34 C207.05,543.81 207.04,539.07 207.01,524.82 C207.00,522.92 207.00,520.85 207.00,518.59 C207.00,499.55 206.67,492.07 205.80,491.20 C204.24,489.64 195.76,489.64 194.20,491.20 C193.38,492.02 193.00,496.90 193.00,506.64 C193.00,514.47 192.62,521.12 192.15,521.41 C190.82,522.23 187.74,518.39 180.98,507.50 C177.56,502.00 173.42,495.79 171.77,493.71 L 168.77 489.92 L 161.63 490.21 L 154.50 490.50 ZM 374.56 375.50 C372.60,380.99 372.14,381.53 369.21,381.81 C367.44,381.99 366.00,381.98 366.00,381.81 C366.00,381.63 364.94,378.57 363.64,375.00 C360.93,367.52 355.75,357.29 350.07,348.17 C348.02,344.89 346.95,343.17 346.90,341.43 C346.84,339.51 348.02,337.55 350.50,333.43 L 350.53 333.37 C352.29,330.45 354.71,325.46 355.90,322.28 C358.55,315.21 362.75,312.00 369.34,312.00 C375.94,312.00 379.76,315.11 383.00,323.12 C384.47,326.76 387.09,332.05 388.83,334.88 C390.58,337.71 392.00,340.54 392.00,341.16 C392.00,341.78 389.81,345.94 387.13,350.39 C380.77,360.99 377.19,368.13 374.56,375.50 ZM 277.45 544.73 C277.82,545.70 282.62,546.00 297.39,546.00 C308.08,546.00 317.55,545.73 318.42,545.39 C320.67,544.53 320.67,534.47 318.42,533.61 C317.55,533.27 311.53,533.00 305.04,533.00 C292.10,533.00 290.22,532.24 291.41,527.51 C291.88,525.62 292.71,524.99 294.77,524.94 C310.48,524.61 315.07,524.56 316.42,522.45 C316.97,521.58 316.98,520.36 316.98,518.62 C316.98,518.53 316.98,518.43 316.98,518.33 C317.01,512.08 316.86,512.00 304.59,512.00 C292.79,512.00 291.00,511.40 291.00,507.42 C291.00,503.72 293.10,503.08 306.06,502.78 L 318.50 502.50 L 318.50 490.50 L 277.50 490.50 L 277.23 516.98 C277.09,531.55 277.18,544.04 277.45,544.73 ZM 234.14 546.67 C233.45,545.83 232.94,538.06 232.77,525.42 L 232.50 505.50 L 225.00 505.20 C220.88,505.04 217.18,504.58 216.80,504.20 C215.59,502.99 215.05,492.77 216.10,490.82 C217.03,489.08 218.63,488.98 242.29,489.23 L 267.50 489.50 L 267.80 495.84 C268.20,504.30 267.48,505.00 258.43,505.00 L 251.11 505.00 L 250.81 525.54 C250.55,542.47 250.24,546.24 249.00,547.02 C246.68,548.49 235.43,548.22 234.14,546.67 ZM 471.72 547.91 C466.33,546.64 462.62,544.53 459.72,541.08 C456.44,537.18 453.75,530.06 454.17,526.40 C454.50,523.53 454.57,523.50 461.84,523.20 C469.50,522.90 472.00,523.82 472.00,526.97 C472.00,531.27 479.43,533.60 483.56,530.58 C485.34,529.29 485.54,527.49 486.00,509.33 L 486.50 489.50 L 494.19 489.21 C494.41,489.20 494.62,489.19 494.83,489.18 C498.34,489.05 500.56,488.96 501.94,490.00 C504.33,491.80 504.18,496.97 503.78,511.09 C503.77,511.58 503.75,512.08 503.74,512.59 C503.28,528.74 502.88,532.48 501.22,536.24 C498.69,541.96 493.48,545.92 486.23,547.62 C479.78,549.14 477.16,549.19 471.72,547.91 ZM 329.57 546.43 C328.22,545.08 328.00,541.09 328.00,518.05 C328.00,496.23 328.26,491.03 329.41,490.08 C330.28,489.35 333.61,489.02 338.16,489.20 L 345.50 489.50 L 345.77 510.24 C345.80,512.56 345.81,514.64 345.82,516.50 C345.86,525.19 345.88,529.05 347.81,530.77 C349.35,532.15 352.09,532.17 357.03,532.20 C358.36,532.21 359.84,532.22 361.50,532.25 L 372.50 532.50 L 373.07 537.47 C373.92,544.84 373.30,546.69 369.78,547.39 C368.11,547.73 358.74,548.00 348.95,548.00 C334.09,548.00 330.88,547.74 329.57,546.43 ZM 363.99 300.27 C362.07,300.73 359.49,301.36 358.26,301.67 C356.74,302.05 355.86,301.72 355.51,300.61 C355.23,299.73 354.73,298.21 354.41,297.25 C352.51,291.65 349.00,276.26 349.00,273.52 C349.00,269.38 352.40,264.37 357.76,260.60 C364.07,256.17 371.64,255.85 378.99,259.71 C386.81,263.82 389.27,267.83 388.69,275.50 C388.17,282.35 386.94,288.12 384.33,296.00 C383.47,298.57 383.05,300.03 382.08,300.73 C380.82,301.64 378.63,301.28 373.40,300.40 C373.10,300.35 372.80,300.30 372.49,300.25 C369.74,299.80 365.91,299.80 363.99,300.27 ZM 380.73 547.31 C379.09,546.88 378.99,544.86 379.23,518.17 L 379.50 489.50 L 395.50 489.50 L 395.77 509.42 C395.94,522.06 396.45,529.83 397.14,530.67 C397.95,531.64 401.54,532.00 410.52,532.00 C410.86,532.00 411.20,532.00 411.53,532.00 C418.84,532.00 421.87,532.00 423.12,533.49 C424.01,534.54 424.00,536.34 424.00,539.40 C424.00,539.60 424.00,539.80 424.00,540.01 C424.00,547.95 423.82,548.02 401.68,547.88 C391.13,547.82 381.71,547.56 380.73,547.31 ZM 367.00 361.51 C367.00,354.70 366.55,347.95 366.00,346.50 C364.12,341.57 368.81,337.66 372.00,341.50 C372.92,342.61 372.98,344.07 372.23,347.25 C370.94,352.66 370.73,371.04 371.93,372.93 C372.60,373.99 373.74,372.41 376.32,366.82 C378.23,362.68 382.09,355.59 384.90,351.07 C387.70,346.54 390.00,342.13 390.00,341.26 C390.00,340.39 388.69,337.61 387.08,335.09 C385.47,332.56 382.94,327.45 381.46,323.71 C378.44,316.14 375.77,314.00 369.30,314.00 C363.62,314.01 359.68,316.90 357.57,322.62 C356.58,325.31 353.97,330.59 351.77,334.37 L 347.77 341.24 L 350.08 345.37 C351.35,347.64 354.08,352.13 356.15,355.34 C358.22,358.55 361.17,364.25 362.71,368.00 C364.24,371.74 365.84,374.60 366.25,374.35 C366.66,374.09 367.00,368.31 367.00,361.51 ZM 383.21 294.43 C386.17,284.56 387.90,272.87 386.82,270.03 C384.33,263.47 377.16,259.00 369.13,259.00 C364.13,259.00 362.49,259.50 358.38,262.25 C355.72,264.04 352.95,266.62 352.23,268.00 C350.24,271.79 351.88,283.98 356.12,296.85 C357.16,300.00 357.42,300.15 360.36,299.38 C364.74,298.23 375.31,298.50 377.60,299.83 C380.54,301.54 381.29,300.82 383.21,294.43 ZM 235.71 545.38 C236.10,545.77 239.14,545.95 242.46,545.79 L 248.50 545.50 L 248.77 525.58 C248.94,512.94 249.45,505.17 250.14,504.33 C250.88,503.44 253.72,503.00 258.67,503.00 L 266.10 503.00 L 265.80 496.75 L 265.50 490.50 L 242.63 490.23 C226.17,490.04 219.35,490.29 218.33,491.14 C217.36,491.95 217.00,493.93 217.20,497.41 L 217.50 502.50 L 225.29 503.00 C230.70,503.35 233.37,503.96 234.02,505.00 C234.54,505.83 234.98,515.09 234.98,525.58 C234.99,536.08 235.32,544.99 235.71,545.38 ZM 470.99 546.07 C478.16,548.24 489.62,546.15 494.63,541.75 C501.00,536.16 501.42,534.52 501.83,513.69 C502.03,503.35 501.91,493.77 501.56,492.40 C500.97,490.03 500.62,489.92 494.72,490.20 L 488.50 490.50 L 487.50 529.18 L 484.69 531.59 C479.43,536.12 476.35,535.03 468.61,525.89 C467.49,524.58 465.70,524.00 462.75,524.02 C456.60,524.04 455.58,524.98 456.38,529.95 C457.61,537.67 463.03,543.64 470.99,546.07 ZM 330.67 545.33 C331.93,546.60 369.50,546.10 370.80,544.80 C372.27,543.33 372.37,537.56 370.96,534.93 C370.03,533.19 368.77,533.00 358.16,533.00 C350.35,533.00 346.00,532.60 345.20,531.80 C344.35,530.95 344.00,524.89 344.00,510.91 C344.00,493.87 343.79,491.13 342.42,490.61 C339.69,489.56 332.46,489.94 331.20,491.20 C330.33,492.07 330.00,499.54 330.00,518.53 C330.00,532.91 330.30,544.97 330.67,545.33 ZM 380.69 545.35 C381.06,545.73 390.40,545.92 401.44,545.77 L 421.50 545.50 L 421.81 540.67 C422.27,533.37 421.62,533.00 408.00,533.00 C399.46,533.00 395.94,532.64 395.14,531.67 C394.45,530.83 393.94,523.06 393.77,510.42 L 393.50 490.50 L 388.17 490.19 C385.10,490.02 382.24,490.39 381.42,491.07 C380.26,492.03 380.00,497.04 380.00,518.46 C380.00,532.87 380.31,544.98 380.69,545.35 ZM 430.75 546.98 C429.15,545.99 429.00,543.53 429.00,518.65 C429.00,498.79 429.33,491.07 430.20,490.20 C430.91,489.49 434.33,489.00 438.59,489.00 C444.23,489.00 445.92,489.34 446.39,490.58 C447.37,493.13 447.06,544.36 446.05,545.95 C444.91,547.75 433.28,548.53 430.75,546.98 ZM 340.82 427.75 C342.71,429.26 343.68,429.33 344.51,427.99 C344.85,427.43 338.03,413.37 329.35,396.74 C309.58,358.85 307.07,353.83 307.03,352.11 C307.01,351.35 309.58,345.64 312.73,339.43 C315.88,333.21 318.15,327.82 317.78,327.44 C317.40,327.07 313.87,327.55 309.94,328.51 C304.61,329.82 302.60,329.97 302.06,329.10 C301.67,328.46 300.54,321.99 299.56,314.72 C298.03,303.34 296.34,293.99 291.89,272.04 C290.67,266.06 289.50,265.05 286.85,267.70 L 284.73 269.83 L 287.41 280.03 C291.26,294.66 295.98,322.22 296.02,330.30 C296.04,335.87 297.11,336.61 303.00,335.10 C305.81,334.38 308.42,334.09 308.79,334.46 C309.48,335.15 308.65,336.78 303.09,345.61 L 299.87 350.73 L 305.81 362.11 C309.08,368.38 317.94,385.42 325.51,400.00 C333.07,414.58 339.96,427.06 340.82,427.75 ZM 128.67 546.75 C127.12,545.61 126.99,542.94 127.23,517.50 L 127.50 489.50 L 143.50 489.50 L 143.77 517.93 C143.97,540.01 143.75,546.54 142.77,547.17 C140.77,548.43 130.56,548.13 128.67,546.75 ZM 128.98 543.43 C129.86,545.76 130.47,546.00 135.44,546.00 C139.92,546.00 141.13,545.63 142.01,543.98 C143.22,541.72 143.28,497.72 142.08,493.19 C141.43,490.75 140.87,490.47 135.96,490.19 C131.73,489.95 130.28,490.26 129.28,491.63 C127.71,493.78 127.44,539.40 128.98,543.43 ZM 375.54 192.67 C371.40,194.27 368.14,194.20 364.03,192.42 C359.46,190.43 357.19,188.29 354.89,183.79 C352.39,178.89 352.50,174.40 355.25,169.02 C358.29,163.07 361.74,160.77 368.46,160.21 C373.49,159.79 374.00,159.94 374.00,161.75 C374.00,162.85 373.33,164.32 372.50,165.00 C370.33,166.80 370.66,170.60 373.19,172.96 C376.00,175.58 378.79,175.55 381.63,172.87 C385.07,169.64 387.00,171.02 387.00,176.72 C386.99,184.12 382.88,189.83 375.54,192.67 ZM 431.47 544.78 C431.83,545.72 433.77,546.01 438.24,545.80 L 444.50 545.50 L 444.50 490.50 L 431.50 490.50 L 431.23 516.98 C431.09,531.55 431.19,544.06 431.47,544.78 ZM 549.18 530.33 C543.00,536.24 530.59,534.04 527.42,526.47 C525.60,522.10 525.60,513.90 527.42,509.53 C528.21,507.64 530.19,505.44 531.87,504.57 C535.72,502.58 543.23,502.55 547.03,504.52 C554.85,508.56 556.11,523.69 549.18,530.33 ZM 376.93 190.54 C381.19,188.33 384.73,183.56 385.51,178.97 C386.31,174.18 385.66,173.11 382.97,174.79 C379.90,176.70 373.58,176.30 371.55,174.06 C369.61,171.91 369.33,169.21 370.51,164.14 L 371.29 160.78 L 367.90 161.50 C359.98,163.20 355.85,167.81 355.19,175.69 C354.82,180.24 355.15,181.62 357.44,185.09 C361.67,191.48 370.39,193.92 376.93,190.54 ZM 546.59 530.35 C553.70,525.69 553.95,512.79 547.04,506.53 C543.73,503.54 534.92,503.79 531.53,506.97 C525.89,512.27 525.88,523.08 531.53,528.73 C534.28,531.48 535.53,532.00 539.44,532.00 C542.06,532.00 545.16,531.28 546.59,530.35 ZM 608.53 534.55 C604.02,536.44 595.62,536.45 594.06,534.58 C593.40,533.78 593.02,531.03 593.19,528.33 L 593.50 523.50 L 600.59 523.21 C609.78,522.83 612.55,524.77 612.12,531.30 C612.05,532.35 610.55,533.71 608.53,534.55 ZM 427.43 222.92 C425.59,220.89 425.59,220.78 427.45,217.67 C433.00,208.40 436.09,201.73 437.71,195.55 C439.92,187.09 442.00,185.72 442.00,192.71 C442.00,201.11 437.65,214.97 432.72,222.25 C430.49,225.55 429.88,225.63 427.43,222.92 ZM 369.65 309.00 C368.33,309.00 365.25,310.12 362.80,311.49 C359.00,313.61 358.09,313.78 356.55,312.66 C351.59,309.04 362.90,301.09 371.14,302.41 C377.03,303.35 383.00,307.44 383.00,310.54 C383.00,314.21 380.50,314.60 376.00,311.62 C373.82,310.18 370.96,309.00 369.65,309.00 ZM 609.17 510.35 C607.85,511.54 605.47,512.00 600.64,512.00 C593.15,512.00 592.67,511.57 593.18,505.36 L 593.50 501.50 L 600.37 501.20 C605.73,500.97 607.65,501.28 609.12,502.61 C611.51,504.77 611.53,508.21 609.17,510.35 ZM 609.44 532.07 C611.67,529.60 610.68,526.21 607.35,524.94 C603.86,523.62 596.63,523.77 595.20,525.20 C593.91,526.49 593.63,529.87 594.61,532.42 C595.56,534.91 607.11,534.64 609.44,532.07 ZM 607.43 509.43 C609.19,507.66 609.38,506.15 608.09,504.11 C606.89,502.22 597.45,501.38 595.51,503.00 C593.70,504.49 593.54,508.14 595.20,509.80 C596.97,511.57 605.54,511.31 607.43,509.43 ZM 369.71 308.00 C371.79,308.01 375.03,308.94 376.90,310.08 C379.53,311.69 380.47,311.86 381.08,310.87 C381.51,310.17 381.64,309.23 381.37,308.78 C380.25,306.98 372.86,304.00 369.50,304.00 C365.97,304.00 358.73,307.01 357.51,308.99 C356.03,311.39 358.29,311.89 362.01,309.99 C364.16,308.90 367.63,308.00 369.71,308.00 ZM 428.36 221.50 C428.68,222.33 429.42,223.00 430.01,223.00 C431.63,223.00 438.01,208.98 437.96,205.53 L 437.91 202.50 L 435.85 206.50 C434.71,208.70 432.44,212.64 430.79,215.25 C429.14,217.87 428.05,220.68 428.36,221.50 ZM 367.38 345.55 C368.05,347.29 369.20,347.40 370.72,345.88 C372.10,344.50 371.28,342.00 369.45,342.00 C367.70,342.00 366.68,343.73 367.38,345.55 Z" fill="rgb(129,78,61)"/>
<path d="M 359.00 443.87 C348.92,443.20 345.26,442.43 332.50,438.31 C316.51,433.14 301.75,423.87 289.00,411.00 C255.55,377.22 246.76,327.02 266.78,284.00 C274.99,266.35 288.35,250.81 305.81,238.57 C310.30,235.43 314.23,232.44 314.54,231.93 C314.85,231.43 313.69,228.95 311.95,226.43 C307.55,220.03 302.00,207.68 302.01,204.32 C302.03,201.98 302.73,202.79 306.10,209.00 C314.18,223.86 322.90,232.74 336.79,240.25 C346.59,245.54 357.08,247.97 370.27,247.98 C385.72,248.01 397.77,244.47 410.12,236.30 C412.96,234.42 414.27,234.08 415.67,234.84 C416.68,235.39 422.60,241.02 428.84,247.35 C438.59,257.26 440.08,259.20 439.46,261.19 C439.07,262.46 438.58,263.69 438.37,263.93 C438.15,264.16 433.49,259.94 428.00,254.55 C416.84,243.58 415.60,243.33 414.49,251.83 C414.16,254.40 411.59,267.98 408.79,282.00 C406.00,296.02 403.38,309.30 402.98,311.50 C402.04,316.67 397.87,337.13 389.02,380.00 C385.10,398.98 381.11,418.33 380.15,423.00 L 378.41 431.50 L 369.55 431.79 C364.67,431.95 360.34,431.73 359.92,431.29 C359.36,430.71 340.90,341.58 337.29,322.00 C337.03,320.62 334.87,309.60 332.49,297.50 C327.47,272.01 324.75,257.55 322.98,247.00 C321.60,238.80 319.82,235.00 317.36,235.00 C314.03,235.00 301.11,244.72 291.50,254.46 C276.28,269.89 267.64,286.20 262.97,308.32 C260.79,318.64 260.38,335.56 262.06,346.00 C265.28,366.01 276.01,387.38 290.60,402.85 C305.51,418.65 321.75,428.25 342.77,433.67 C352.24,436.12 355.31,436.44 369.00,436.44 C382.77,436.44 385.73,436.13 395.49,433.61 C415.74,428.39 431.94,419.00 446.14,404.26 C455.72,394.30 458.85,390.01 465.29,378.00 C474.60,360.62 478.96,338.58 476.96,318.93 L 476.00 309.50 L 463.42 297.01 C453.02,286.66 450.69,284.80 449.93,286.15 C449.04,287.75 447.30,296.01 445.67,305.26 C447.14,296.70 448.68,288.99 449.54,286.76 C449.91,285.80 450.72,285.31 451.35,285.67 C451.98,286.03 450.92,284.79 449.00,282.91 L 445.50 279.50 L 444.42 283.50 C445.37,279.55 444.98,278.13 442.72,275.33 C440.64,272.76 440.07,268.00 441.83,268.00 C442.21,268.00 449.49,275.02 458.01,283.60 C466.53,292.19 475.26,300.51 477.40,302.10 C482.78,306.10 486.69,305.94 492.00,301.50 C496.37,297.85 498.00,297.74 498.00,301.12 C498.00,304.01 490.14,311.86 485.73,313.37 L 481.97 314.65 L 481.65 332.58 C481.27,354.75 479.14,363.80 470.00,382.12 C456.98,408.22 433.56,428.85 406.63,437.95 C390.37,443.45 377.24,445.08 359.00,443.87 ZM 353.11 226.42 C344.06,223.03 338.71,219.66 332.52,213.48 C321.97,202.93 317.81,192.66 317.73,177.00 C317.69,168.64 318.13,165.20 319.89,160.11 C327.57,138.02 347.04,124.00 370.05,124.00 C384.90,124.00 396.81,128.90 407.54,139.44 C436.39,167.74 423.38,215.98 383.85,227.37 C375.21,229.86 361.13,229.42 353.11,226.42 ZM 356.45 204.01 C361.49,206.46 363.77,206.95 370.09,206.97 C376.61,207.00 378.56,206.56 383.90,203.89 C408.37,191.66 405.83,156.08 379.87,147.46 C363.79,142.12 345.70,151.33 340.83,167.35 C336.29,182.28 342.71,197.35 356.45,204.01 ZM 374.56 375.50 C377.19,368.13 380.77,360.99 387.13,350.39 C389.81,345.94 392.00,341.78 392.00,341.16 C392.00,340.54 390.58,337.71 388.83,334.88 C387.09,332.05 384.47,326.76 383.00,323.12 C379.76,315.11 375.94,312.00 369.34,312.00 C362.75,312.00 358.55,315.21 355.90,322.28 C354.71,325.46 352.29,330.45 350.53,333.37 L 350.50 333.43 C348.02,337.55 346.84,339.51 346.90,341.43 C346.95,343.17 348.02,344.89 350.07,348.17 C355.75,357.29 360.93,367.52 363.64,375.00 C364.94,378.57 366.00,381.63 366.00,381.81 C366.00,381.98 367.44,381.99 369.21,381.81 C372.14,381.53 372.60,380.99 374.56,375.50 ZM 363.99 300.27 C365.91,299.80 369.74,299.80 372.49,300.25 C372.80,300.30 373.10,300.35 373.40,300.40 C378.63,301.28 380.82,301.64 382.08,300.73 C383.05,300.03 383.47,298.57 384.33,296.00 C386.94,288.12 388.17,282.35 388.69,275.50 C389.27,267.83 386.81,263.82 378.99,259.71 C371.64,255.85 364.07,256.17 357.76,260.60 C352.40,264.37 349.00,269.38 349.00,273.52 C349.00,276.26 352.51,291.65 354.41,297.25 C354.73,298.21 355.23,299.73 355.51,300.61 C355.86,301.72 356.74,302.05 358.26,301.67 C359.49,301.36 362.07,300.73 363.99,300.27 ZM 369.65 309.00 C370.96,309.00 373.82,310.18 376.00,311.62 C380.50,314.60 383.00,314.21 383.00,310.54 C383.00,307.44 377.03,303.35 371.14,302.41 C362.90,301.09 351.59,309.04 356.55,312.66 C358.09,313.78 359.00,313.61 362.80,311.49 C365.25,310.12 368.33,309.00 369.65,309.00 ZM 374.00 161.75 C374.00,161.40 373.98,161.12 373.91,160.88 C373.97,160.98 374.00,161.09 374.00,161.20 C374.00,162.23 374.84,162.53 376.90,162.23 C380.63,161.68 384.40,165.14 383.75,168.52 C383.48,169.95 383.74,170.75 384.67,171.16 C383.85,171.18 382.84,171.74 381.63,172.87 C378.79,175.55 376.00,175.58 373.19,172.96 C370.66,170.60 370.33,166.80 372.50,165.00 C373.33,164.32 374.00,162.85 374.00,161.75 ZM 428.36 221.50 C428.05,220.68 429.14,217.87 430.79,215.25 C432.44,212.64 434.71,208.70 435.85,206.50 L 437.91 202.50 L 437.96 205.53 C438.01,208.98 431.63,223.00 430.01,223.00 C429.42,223.00 428.68,222.33 428.36,221.50 ZM 367.38 345.55 C366.68,343.73 367.70,342.00 369.45,342.00 C371.28,342.00 372.10,344.50 370.72,345.88 C369.20,347.40 368.05,347.29 367.38,345.55 ZM 443.99 285.16 C442.53,291.11 440.46,303.09 438.98,314.14 C440.51,302.69 442.68,290.03 443.99,285.16 ZM 358.35 164.41 C358.96,163.70 359.59,163.10 360.21,162.64 C360.97,162.09 362.06,161.61 363.29,161.21 C361.33,161.89 359.74,162.92 358.35,164.41 ZM 353.28 179.06 C353.10,178.23 353.00,177.45 353.00,176.75 C353.00,175.74 353.21,174.56 353.57,173.31 C353.06,175.28 352.97,177.17 353.28,179.06 ZM 360.99 190.86 C360.09,190.33 359.29,189.77 358.67,189.21 C357.73,188.35 356.79,187.12 355.96,185.71 C357.36,187.99 358.87,189.55 360.99,190.86 ZM 365.96 160.53 C367.70,160.18 369.49,160.01 370.94,160.04 C370.27,160.07 369.45,160.13 368.46,160.21 C367.57,160.29 366.74,160.39 365.96,160.53 ZM 371.59 193.72 C370.99,193.82 370.44,193.88 370.00,193.88 C369.33,193.89 368.54,193.79 367.67,193.59 C368.99,193.84 370.27,193.89 371.59,193.72 ZM 438.46 318.18 C437.75,323.73 436.76,328.64 436.22,329.18 C436.74,328.65 437.72,323.79 438.46,318.18 Z" fill="rgb(237,222,200)"/>
<path d="M 470.99 546.07 C463.03,543.64 457.61,537.67 456.38,529.95 C455.58,524.98 456.60,524.04 462.75,524.02 C465.70,524.00 467.49,524.58 468.61,525.89 C476.35,535.03 479.43,536.12 484.69,531.59 L 487.50 529.18 L 488.00 509.84 L 488.50 490.50 L 494.72 490.20 C500.62,489.92 500.97,490.03 501.56,492.40 C501.91,493.77 502.03,503.35 501.83,513.69 C501.42,534.52 501.00,536.16 494.63,541.75 C489.62,546.15 478.16,548.24 470.99,546.07 ZM 530.67 545.57 C523.20,543.56 517.93,539.35 514.64,532.77 C506.90,517.30 512.32,498.77 526.53,492.09 C531.64,489.69 544.57,489.19 551.08,491.14 C556.18,492.67 561.41,497.13 564.75,502.82 C567.28,507.12 567.50,508.35 567.50,518.00 C567.50,526.85 567.16,529.13 565.34,532.50 C561.52,539.59 555.38,544.11 547.19,545.87 C540.58,547.28 536.81,547.22 530.67,545.57 ZM 549.18 530.33 C556.11,523.69 554.85,508.56 547.03,504.52 C543.23,502.55 535.72,502.58 531.87,504.57 C530.19,505.44 528.21,507.64 527.42,509.53 C525.60,513.90 525.60,522.10 527.42,526.47 C530.59,534.04 543.00,536.24 549.18,530.33 ZM 128.98 543.43 C127.44,539.40 127.71,493.78 129.28,491.63 C130.28,490.26 131.73,489.95 135.96,490.19 C140.87,490.47 141.43,490.75 142.08,493.19 C143.28,497.72 143.22,541.72 142.01,543.98 C141.13,545.63 139.92,546.00 135.44,546.00 C130.47,546.00 129.86,545.76 128.98,543.43 ZM 154.23 518.30 L 154.50 490.50 L 161.63 490.21 L 168.77 489.92 L 171.77 493.71 C173.42,495.79 177.56,502.00 180.98,507.50 C187.74,518.39 190.82,522.23 192.15,521.41 C192.62,521.12 193.00,514.47 193.00,506.64 C193.00,496.90 193.38,492.02 194.20,491.20 C195.76,489.64 204.24,489.64 205.80,491.20 C206.67,492.07 207.00,499.55 207.00,518.59 C207.00,548.42 207.84,546.00 197.45,546.00 L 191.06 546.00 L 180.48 529.92 C167.34,509.94 167.17,509.96 166.78,530.85 L 166.50 545.50 L 160.23 545.80 L 153.97 546.10 L 154.23 518.30 ZM 235.71 545.38 C235.32,544.99 234.99,536.08 234.98,525.58 C234.98,515.09 234.54,505.83 234.02,505.00 C233.37,503.96 230.70,503.35 225.29,503.00 L 217.50 502.50 L 217.20 497.41 C217.00,493.93 217.36,491.95 218.33,491.14 C219.35,490.29 226.17,490.04 242.63,490.23 L 265.50 490.50 L 265.80 496.75 L 266.10 503.00 L 258.67 503.00 C253.72,503.00 250.88,503.44 250.14,504.33 C249.45,505.17 248.94,512.94 248.77,525.58 L 248.50 545.50 L 242.46 545.79 C239.14,545.95 236.10,545.77 235.71,545.38 ZM 277.45 544.73 C277.18,544.04 277.09,531.55 277.23,516.98 L 277.50 490.50 L 298.00 490.50 L 318.50 490.50 L 318.50 496.50 L 318.50 502.50 L 306.06 502.78 C293.10,503.08 291.00,503.72 291.00,507.42 C291.00,511.40 292.79,512.00 304.59,512.00 C316.86,512.00 317.01,512.08 316.98,518.33 C316.95,524.58 317.32,524.47 294.77,524.94 C292.71,524.99 291.88,525.62 291.41,527.51 C290.22,532.24 292.10,533.00 305.04,533.00 C311.53,533.00 317.55,533.27 318.42,533.61 C320.67,534.47 320.67,544.53 318.42,545.39 C317.55,545.73 308.08,546.00 297.39,546.00 C282.62,546.00 277.82,545.70 277.45,544.73 ZM 330.67 545.33 C330.30,544.97 330.00,532.91 330.00,518.53 C330.00,499.54 330.33,492.07 331.20,491.20 C332.46,489.94 339.69,489.56 342.42,490.61 C343.79,491.13 344.00,493.87 344.00,510.91 C344.00,524.89 344.35,530.95 345.20,531.80 C346.00,532.60 350.35,533.00 358.16,533.00 C368.77,533.00 370.03,533.19 370.96,534.93 C372.37,537.56 372.27,543.33 370.80,544.80 C369.50,546.10 331.93,546.60 330.67,545.33 ZM 380.69 545.35 C380.31,544.98 380.00,532.87 380.00,518.46 C380.00,497.04 380.26,492.03 381.42,491.07 C382.24,490.39 385.10,490.02 388.17,490.19 L 393.50 490.50 L 393.77 510.42 C393.94,523.06 394.45,530.83 395.14,531.67 C395.94,532.64 399.46,533.00 408.00,533.00 C421.62,533.00 422.27,533.37 421.81,540.67 L 421.50 545.50 L 401.44 545.77 C390.40,545.92 381.06,545.73 380.69,545.35 ZM 431.47 544.78 C431.19,544.06 431.09,531.55 431.23,516.98 L 431.50 490.50 L 438.00 490.50 L 444.50 490.50 L 444.50 518.00 L 444.50 545.50 L 438.24 545.80 C433.77,546.01 431.83,545.72 431.47,544.78 ZM 579.49 544.83 C579.20,544.08 579.09,531.55 579.23,516.98 L 579.50 490.50 L 594.25 490.22 C615.18,489.83 622.68,492.37 624.80,500.59 C625.98,505.17 625.11,508.67 621.94,512.07 C620.32,513.80 619.00,515.48 619.00,515.81 C619.00,516.14 620.65,518.10 622.66,520.17 C625.75,523.33 626.40,524.76 626.75,529.21 C627.10,533.55 626.76,535.13 624.83,538.00 C620.55,544.37 616.78,545.44 597.26,545.84 C583.37,546.13 579.91,545.93 579.49,544.83 ZM 608.53 534.55 C610.55,533.71 612.05,532.35 612.12,531.30 C612.55,524.77 609.78,522.83 600.59,523.21 L 593.50 523.50 L 593.19 528.33 C593.02,531.03 593.40,533.78 594.06,534.58 C595.62,536.45 604.02,536.44 608.53,534.55 ZM 609.17 510.35 C611.53,508.21 611.51,504.77 609.12,502.61 C607.65,501.28 605.73,500.97 600.37,501.20 L 593.50 501.50 L 593.18 505.36 C592.67,511.57 593.15,512.00 600.64,512.00 C605.47,512.00 607.85,511.54 609.17,510.35 ZM 340.82 427.75 C339.96,427.06 333.07,414.58 325.51,400.00 C317.94,385.42 309.08,368.38 305.81,362.11 L 299.87 350.73 L 303.09 345.61 C308.65,336.78 309.48,335.15 308.79,334.46 C308.42,334.09 305.81,334.38 303.00,335.10 C297.11,336.61 296.04,335.87 296.02,330.30 C295.98,322.22 291.26,294.66 287.41,280.03 L 284.73 269.83 L 286.85 267.70 C289.50,265.05 290.67,266.06 291.89,272.04 C296.34,293.99 298.03,303.34 299.56,314.72 C300.54,321.99 301.67,328.46 302.06,329.10 C302.60,329.97 304.61,329.82 309.94,328.51 C313.87,327.55 317.40,327.07 317.78,327.44 C318.15,327.82 315.88,333.21 312.73,339.43 C309.58,345.64 307.01,351.35 307.03,352.11 C307.07,353.83 309.58,358.85 329.35,396.74 C338.03,413.37 344.85,427.43 344.51,427.99 C343.68,429.33 342.71,429.26 340.82,427.75 ZM 394.00 426.97 C394.00,426.00 412.44,389.65 414.02,387.50 C414.42,386.95 418.72,378.66 423.57,369.08 L 432.39 351.66 L 426.70 340.94 C421.21,330.61 419.97,327.00 421.92,327.00 C422.42,327.00 425.63,327.71 429.03,328.59 C433.14,329.64 435.56,329.84 436.22,329.18 C436.77,328.63 437.79,323.53 438.50,317.84 C440.08,305.11 442.66,290.00 444.28,284.00 L 445.50 279.50 L 449.00 282.91 C450.92,284.79 451.98,286.03 451.35,285.67 C450.72,285.31 449.91,285.80 449.54,286.76 C447.57,291.87 442.01,325.80 442.00,332.69 C442.00,334.45 441.66,336.08 441.25,336.33 C440.84,336.57 438.34,336.08 435.71,335.23 C428.51,332.91 428.02,334.44 433.44,342.37 C435.95,346.03 438.00,349.73 438.00,350.60 C438.00,351.47 435.02,357.88 431.38,364.84 C427.74,371.80 421.83,383.12 418.25,390.00 C396.56,431.60 398.68,428.00 395.88,428.00 C394.84,428.00 394.00,427.54 394.00,426.97 ZM 356.45 204.01 C342.71,197.35 336.29,182.28 340.83,167.35 C345.70,151.33 363.79,142.12 379.87,147.46 C405.83,156.08 408.37,191.66 383.90,203.89 C378.56,206.56 376.61,207.00 370.09,206.97 C363.77,206.95 361.49,206.46 356.45,204.01 ZM 375.54 192.67 C382.91,189.82 386.99,184.12 387.00,176.66 C387.00,172.79 386.63,171.72 385.15,171.33 C383.84,170.99 383.44,170.17 383.75,168.52 C384.40,165.14 380.63,161.68 376.90,162.23 C374.84,162.53 374.00,162.23 374.00,161.20 C374.00,159.03 363.69,160.11 360.21,162.64 C356.73,165.18 353.00,172.48 353.00,176.75 C353.00,180.47 355.80,186.60 358.67,189.21 C361.28,191.57 367.00,193.93 370.00,193.88 C371.38,193.86 373.87,193.32 375.54,192.67 Z" fill="rgb(240,105,64)"/>
</g>
</svg>